<?xml version='1.0' encoding='utf-8'?>
<svg xmlns="http://www.w3.org/2000/svg" width="500" zoomAndPan="magnify" viewBox="0 0 375 374.999991" height="500" preserveAspectRatio="xMidYMid meet" version="1.2" baseProfile="tiny-ps"><title>Stellar Quanta Labs</title><desc>Logo for Stellar Quanta Labs used for email verification purposes.</desc><defs><g /><clipPath id="a843a4172d"><path d="M 249.90625 117.46875 L 283.847656 117.46875 L 283.847656 151.410156 L 249.90625 151.410156 Z M 249.90625 117.46875 " clip-rule="nonzero" /></clipPath></defs><rect x="-37.5" width="450" fill="#ffffff" y="-37.499999" height="449.999989" fill-opacity="1" /><rect x="-37.5" width="450" fill="#000000" y="-37.499999" height="449.999989" fill-opacity="1" /><g fill="#ffffff" fill-opacity="1"><g transform="translate(-25.028462, 247.940791)"><g><path d="M 83.234375 -13.921875 L 35.921875 -54.140625 L 35.921875 -74.890625 L 83.234375 -115.109375 L 105.75 -115.109375 L 105.75 -99.9375 L 88.796875 -99.9375 L 51.609375 -68.3125 L 51.609375 -60.46875 L 88.796875 -29.09375 L 105.75 -29.09375 L 105.75 -13.921875 Z M 83.234375 -13.921875 " /></g></g></g><g fill="#ffffff" fill-opacity="1"><g transform="translate(116.642034, 247.940791)"><g /></g></g><g fill="#ffffff" fill-opacity="1"><g transform="translate(258.312531, 247.940791)"><g><path d="M 35.921875 -13.921875 L 35.921875 -29.09375 L 52.875 -29.09375 L 90.0625 -60.71875 L 90.0625 -68.5625 L 52.875 -99.9375 L 35.921875 -99.9375 L 35.921875 -115.109375 L 58.4375 -115.109375 L 105.75 -74.890625 L 105.75 -54.140625 L 58.4375 -13.921875 Z M 35.921875 -13.921875 " /></g></g></g><g fill="#ffffff" fill-opacity="1"><g transform="translate(90.889351, 212.99028)"><g><path d="M 26.1875 0 C 22.675781 0 19.539062 -0.710938 16.78125 -2.140625 C 14.03125 -3.566406 11.84375 -5.492188 10.21875 -7.921875 C 8.59375 -10.359375 7.78125 -13.171875 7.78125 -16.359375 L 7.78125 -17.328125 L 21.421875 -17.328125 L 21.421875 -16.359375 C 21.421875 -15.640625 21.804688 -15.003906 22.578125 -14.453125 C 23.359375 -13.898438 24.5625 -13.625 26.1875 -13.625 L 36.984375 -13.625 C 38.085938 -13.625 39.015625 -13.769531 39.765625 -14.0625 C 40.515625 -14.351562 40.890625 -14.988281 40.890625 -15.96875 C 40.890625 -17.195312 40.300781 -18.054688 39.125 -18.546875 C 37.957031 -19.035156 36.414062 -19.328125 34.5 -19.421875 C 32.59375 -19.515625 30.46875 -19.609375 28.125 -19.703125 C 25.789062 -19.804688 23.472656 -20.050781 21.171875 -20.4375 C 18.867188 -20.832031 16.757812 -21.5625 14.84375 -22.625 C 12.925781 -23.695312 11.382812 -25.253906 10.21875 -27.296875 C 9.050781 -29.347656 8.46875 -32.09375 8.46875 -35.53125 C 8.46875 -38.519531 9.210938 -41.148438 10.703125 -43.421875 C 12.203125 -45.691406 14.265625 -47.457031 16.890625 -48.71875 C 19.515625 -49.988281 22.546875 -50.625 25.984375 -50.625 L 35.328125 -50.625 C 38.640625 -50.625 41.609375 -49.890625 44.234375 -48.421875 C 46.867188 -46.960938 48.960938 -45 50.515625 -42.53125 C 52.078125 -40.070312 52.859375 -37.285156 52.859375 -34.171875 L 52.859375 -33.296875 L 39.234375 -33.296875 L 39.234375 -34.171875 C 39.234375 -34.941406 38.890625 -35.601562 38.203125 -36.15625 C 37.523438 -36.707031 36.566406 -36.984375 35.328125 -36.984375 L 25.984375 -36.984375 C 24.492188 -36.984375 23.472656 -36.769531 22.921875 -36.34375 C 22.367188 -35.925781 22.09375 -35.332031 22.09375 -34.5625 C 22.09375 -33.457031 22.675781 -32.707031 23.84375 -32.3125 C 25.007812 -31.925781 26.550781 -31.703125 28.46875 -31.640625 C 30.382812 -31.578125 32.507812 -31.507812 34.84375 -31.4375 C 37.1875 -31.375 39.507812 -31.144531 41.8125 -30.75 C 44.113281 -30.363281 46.222656 -29.648438 48.140625 -28.609375 C 50.054688 -27.578125 51.597656 -26.019531 52.765625 -23.9375 C 53.929688 -21.863281 54.515625 -19.109375 54.515625 -15.671875 C 54.515625 -10.929688 52.921875 -7.132812 49.734375 -4.28125 C 46.554688 -1.425781 42.304688 0 36.984375 0 Z M 26.1875 0 " /></g></g></g><g fill="#ffffff" fill-opacity="1"><g transform="translate(153.182542, 212.99028)"><g><path d="M 40.890625 21.421875 L 40.890625 -5.0625 L 33.390625 0 L 27.25 0 C 23.6875 0 20.425781 -0.875 17.46875 -2.625 C 14.519531 -4.375 12.164062 -6.722656 10.40625 -9.671875 C 8.65625 -12.628906 7.78125 -15.894531 7.78125 -19.46875 L 7.78125 -31.15625 C 7.78125 -34.71875 8.65625 -37.972656 10.40625 -40.921875 C 12.164062 -43.878906 14.519531 -46.234375 17.46875 -47.984375 C 20.425781 -49.742188 23.6875 -50.625 27.25 -50.625 L 33.390625 -50.625 L 40.890625 -45.5625 L 40.890625 -50.625 L 54.515625 -50.625 L 54.515625 21.421875 Z M 27.25 -13.625 L 29.203125 -13.625 L 40.890625 -21.515625 L 40.890625 -29.109375 L 29.203125 -36.984375 L 27.25 -36.984375 C 25.632812 -36.984375 24.257812 -36.414062 23.125 -35.28125 C 21.988281 -34.144531 21.421875 -32.769531 21.421875 -31.15625 L 21.421875 -19.46875 C 21.421875 -17.84375 21.988281 -16.460938 23.125 -15.328125 C 24.257812 -14.191406 25.632812 -13.625 27.25 -13.625 Z M 27.25 -13.625 " /></g></g></g><g fill="#ffffff" fill-opacity="1"><g transform="translate(215.475733, 212.99028)"><g><path d="M 7.78125 0 L 7.78125 -13.625 L 23.84375 -13.625 L 23.84375 -55.484375 L 7.78125 -55.484375 L 7.78125 -69.109375 L 37.484375 -69.109375 L 37.484375 -13.625 L 54.515625 -13.625 L 54.515625 0 Z M 7.78125 0 " /></g></g></g><g clip-path="url(#a843a4172d)"><path fill="#ffffff" d="M 284.109375 134.570312 C 271.285156 136.933594 269.371094 138.847656 267.007812 151.671875 C 264.648438 138.847656 262.734375 136.933594 249.90625 134.570312 C 262.734375 132.210938 264.648438 130.296875 267.007812 117.46875 C 269.371094 130.296875 271.285156 132.210938 284.109375 134.570312 Z M 284.109375 134.570312 " fill-opacity="1" fill-rule="nonzero" /></g></svg>